<svg xmlns="http://www.w3.org/2000/svg" viewBox="0 0 1800 2400" role="img" aria-label="Accession plate EP-9997"><rect width="1800" height="2400" fill="#080808"/><defs><radialGradient id="pg" cx="50%" cy="46%" r="55%"><stop offset="0" stop-color="#C8AA76" stop-opacity=".12"/><stop offset="1" stop-color="#C8AA76" stop-opacity="0"/></radialGradient></defs><rect width="1800" height="2400" fill="url(#pg)"/><rect x="60" y="60" width="1680" height="2280" fill="none" stroke="#C8AA76" stroke-width="2" opacity=".55"/><rect x="84" y="84" width="1632" height="2232" fill="none" stroke="#C8AA76" stroke-width="1" opacity=".25"/><text x="150" y="190" font-family="'DM Mono',monospace" font-size="22" letter-spacing="7" fill="#C8AA76">HYAKUTAKE  /  EXPOSITION PARK</text><text x="1650" y="190" text-anchor="end" font-family="'DM Mono',monospace" font-size="22" letter-spacing="7" fill="#F2EFE9" opacity=".55">VERSION 1</text><text x="150" y="300" font-family="Cinzel,serif" font-size="38" letter-spacing="14" fill="#F2EFE9" opacity=".8">FIELD RECORD</text><text x="140" y="540" font-family="Cinzel,serif" font-size="190" letter-spacing="2" fill="#C8AA76">EP-9997</text><text x="1650" y="330" text-anchor="end" font-family="'Cormorant Garamond',Georgia,serif" font-style="italic" font-size="84" fill="#F2EFE9">Bianca (walkthrough)</text><text x="1650" y="380" text-anchor="end" font-family="'DM Mono',monospace" font-size="24" letter-spacing="6" fill="#F2EFE9" opacity=".6">OCTOBER 14, 2026</text><circle cx="999.9" cy="1186.7" r="3.4" fill="#F2EFE9" opacity="0.13"/><circle cx="641.9" cy="1175.2" r="2.1" fill="#F2EFE9" opacity="0.20"/><circle cx="1068.7" cy="1418.8" r="2.3" fill="#F2EFE9" opacity="0.18"/><circle cx="819.0" cy="578.4" r="2.0" fill="#F2EFE9" opacity="0.21"/><circle cx="674.8" cy="1080.5" r="2.7" fill="#F2EFE9" opacity="0.14"/><circle cx="765.0" cy="1198.1" r="2.9" fill="#F2EFE9" opacity="0.13"/><circle cx="1099.3" cy="1017.1" r="2.9" fill="#F2EFE9" opacity="0.15"/><circle cx="1033.2" cy="1547.2" r="2.2" fill="#F2EFE9" opacity="0.26"/><circle cx="897.5" cy="1511.6" r="3.0" fill="#F2EFE9" opacity="0.17"/><circle cx="491.9" cy="1428.4" r="2.6" fill="#F2EFE9" opacity="0.34"/><circle cx="704.0" cy="971.8" r="2.2" fill="#F2EFE9" opacity="0.27"/><circle cx="737.2" cy="1259.8" r="1.8" fill="#F2EFE9" opacity="0.24"/><circle cx="370.1" cy="1054.2" r="2.5" fill="#F2EFE9" opacity="0.40"/><circle cx="882.5" cy="1668.4" r="1.3" fill="#F2EFE9" opacity="0.18"/><circle cx="640.1" cy="1189.8" r="1.9" fill="#F2EFE9" opacity="0.20"/><circle cx="1130.4" cy="1071.5" r="3.1" fill="#F2EFE9" opacity="0.24"/><circle cx="785.2" cy="922.0" r="1.8" fill="#F2EFE9" opacity="0.30"/><circle cx="1040.0" cy="1089.6" r="3.0" fill="#F2EFE9" opacity="0.23"/><circle cx="697.9" cy="1271.0" r="2.5" fill="#F2EFE9" opacity="0.27"/><circle cx="674.8" cy="1080.5" r="1.7" fill="#F2EFE9" opacity="0.20"/><circle cx="727.6" cy="1306.3" r="2.1" fill="#F2EFE9" opacity="0.25"/><circle cx="832.8" cy="960.7" r="3.3" fill="#F2EFE9" opacity="0.41"/><circle cx="915.2" cy="970.7" r="1.8" fill="#F2EFE9" opacity="0.32"/><circle cx="916.5" cy="921.6" r="1.3" fill="#F2EFE9" opacity="0.42"/><circle cx="563.0" cy="1216.4" r="1.8" fill="#F2EFE9" opacity="0.24"/><circle cx="984.1" cy="907.9" r="2.2" fill="#F2EFE9" opacity="0.27"/><circle cx="590.7" cy="710.7" r="2.9" fill="#F2EFE9" opacity="0.23"/><circle cx="531.1" cy="1217.4" r="1.6" fill="#F2EFE9" opacity="0.32"/><circle cx="865.7" cy="1426.2" r="1.4" fill="#F2EFE9" opacity="0.35"/><circle cx="348.2" cy="846.1" r="1.6" fill="#F2EFE9" opacity="0.35"/><circle cx="1108.7" cy="1186.8" r="2.7" fill="#F2EFE9" opacity="0.25"/><circle cx="796.7" cy="1328.2" r="2.4" fill="#F2EFE9" opacity="0.36"/><circle cx="1078.9" cy="830.0" r="2.9" fill="#F2EFE9" opacity="0.31"/><circle cx="876.3" cy="1527.3" r="1.7" fill="#F2EFE9" opacity="0.26"/><circle cx="990.1" cy="797.4" r="1.7" fill="#F2EFE9" opacity="0.20"/><circle cx="581.3" cy="880.2" r="2.9" fill="#F2EFE9" opacity="0.29"/><circle cx="960.1" cy="1345.3" r="3.1" fill="#F2EFE9" opacity="0.14"/><circle cx="579.8" cy="1247.3" r="1.9" fill="#F2EFE9" opacity="0.22"/><circle cx="1502.5" cy="916.5" r="1.7" fill="#F2EFE9" opacity="0.37"/><circle cx="851.6" cy="1560.1" r="1.6" fill="#F2EFE9" opacity="0.20"/><circle cx="900" cy="1100" r="610" fill="none" stroke="#C8AA76" stroke-width="2" opacity="0.55"/><circle cx="900" cy="1100" r="575" fill="none" stroke="#C8AA76" stroke-width="1" opacity="0.2" stroke-dasharray="3 9"/><circle cx="900" cy="1100" r="380" fill="none" stroke="#C8AA76" stroke-width="1" opacity="0.2"/><circle cx="900" cy="1100" r="190" fill="none" stroke="#C8AA76" stroke-width="1" opacity="0.2" stroke-dasharray="3 9"/><line x1="1510.0" y1="1100.0" x2="1488.0" y2="1100.0" stroke="#C8AA76" stroke-width="1.5" opacity=".4"/><line x1="1507.7" y1="1153.2" x2="1498.7" y2="1152.4" stroke="#C8AA76" stroke-width="1.5" opacity=".4"/><line x1="1500.7" y1="1205.9" x2="1491.9" y2="1204.4" stroke="#C8AA76" stroke-width="1.5" opacity=".4"/><line x1="1489.2" y1="1257.9" x2="1480.5" y2="1255.6" stroke="#C8AA76" stroke-width="1.5" opacity=".4"/><line x1="1473.2" y1="1308.6" x2="1464.8" y2="1305.6" stroke="#C8AA76" stroke-width="1.5" opacity=".4"/><line x1="1452.8" y1="1357.8" x2="1444.7" y2="1354.0" stroke="#C8AA76" stroke-width="1.5" opacity=".4"/><line x1="1428.3" y1="1405.0" x2="1409.2" y2="1394.0" stroke="#C8AA76" stroke-width="1.5" opacity=".4"/><line x1="1399.7" y1="1449.9" x2="1392.3" y2="1444.7" stroke="#C8AA76" stroke-width="1.5" opacity=".4"/><line x1="1367.3" y1="1492.1" x2="1360.4" y2="1486.3" stroke="#C8AA76" stroke-width="1.5" opacity=".4"/><line x1="1331.3" y1="1531.3" x2="1325.0" y2="1525.0" stroke="#C8AA76" stroke-width="1.5" opacity=".4"/><line x1="1292.1" y1="1567.3" x2="1286.3" y2="1560.4" stroke="#C8AA76" stroke-width="1.5" opacity=".4"/><line x1="1249.9" y1="1599.7" x2="1244.7" y2="1592.3" stroke="#C8AA76" stroke-width="1.5" opacity=".4"/><line x1="1205.0" y1="1628.3" x2="1194.0" y2="1609.2" stroke="#C8AA76" stroke-width="1.5" opacity=".4"/><line x1="1157.8" y1="1652.8" x2="1154.0" y2="1644.7" stroke="#C8AA76" stroke-width="1.5" opacity=".4"/><line x1="1108.6" y1="1673.2" x2="1105.6" y2="1664.8" stroke="#C8AA76" stroke-width="1.5" opacity=".4"/><line x1="1057.9" y1="1689.2" x2="1055.6" y2="1680.5" stroke="#C8AA76" stroke-width="1.5" opacity=".4"/><line x1="1005.9" y1="1700.7" x2="1004.4" y2="1691.9" stroke="#C8AA76" stroke-width="1.5" opacity=".4"/><line x1="953.2" y1="1707.7" x2="952.4" y2="1698.7" stroke="#C8AA76" stroke-width="1.5" opacity=".4"/><line x1="900.0" y1="1710.0" x2="900.0" y2="1688.0" stroke="#C8AA76" stroke-width="1.5" opacity=".4"/><line x1="846.8" y1="1707.7" x2="847.6" y2="1698.7" stroke="#C8AA76" stroke-width="1.5" opacity=".4"/><line x1="794.1" y1="1700.7" x2="795.6" y2="1691.9" stroke="#C8AA76" stroke-width="1.5" opacity=".4"/><line x1="742.1" y1="1689.2" x2="744.4" y2="1680.5" stroke="#C8AA76" stroke-width="1.5" opacity=".4"/><line x1="691.4" y1="1673.2" x2="694.4" y2="1664.8" stroke="#C8AA76" stroke-width="1.5" opacity=".4"/><line x1="642.2" y1="1652.8" x2="646.0" y2="1644.7" stroke="#C8AA76" stroke-width="1.5" opacity=".4"/><line x1="595.0" y1="1628.3" x2="606.0" y2="1609.2" stroke="#C8AA76" stroke-width="1.5" opacity=".4"/><line x1="550.1" y1="1599.7" x2="555.3" y2="1592.3" stroke="#C8AA76" stroke-width="1.5" opacity=".4"/><line x1="507.9" y1="1567.3" x2="513.7" y2="1560.4" stroke="#C8AA76" stroke-width="1.5" opacity=".4"/><line x1="468.7" y1="1531.3" x2="475.0" y2="1525.0" stroke="#C8AA76" stroke-width="1.5" opacity=".4"/><line x1="432.7" y1="1492.1" x2="439.6" y2="1486.3" stroke="#C8AA76" stroke-width="1.5" opacity=".4"/><line x1="400.3" y1="1449.9" x2="407.7" y2="1444.7" stroke="#C8AA76" stroke-width="1.5" opacity=".4"/><line x1="371.7" y1="1405.0" x2="390.8" y2="1394.0" stroke="#C8AA76" stroke-width="1.5" opacity=".4"/><line x1="347.2" y1="1357.8" x2="355.3" y2="1354.0" stroke="#C8AA76" stroke-width="1.5" opacity=".4"/><line x1="326.8" y1="1308.6" x2="335.2" y2="1305.6" stroke="#C8AA76" stroke-width="1.5" opacity=".4"/><line x1="310.8" y1="1257.9" x2="319.5" y2="1255.6" stroke="#C8AA76" stroke-width="1.5" opacity=".4"/><line x1="299.3" y1="1205.9" x2="308.1" y2="1204.4" stroke="#C8AA76" stroke-width="1.5" opacity=".4"/><line x1="292.3" y1="1153.2" x2="301.3" y2="1152.4" stroke="#C8AA76" stroke-width="1.5" opacity=".4"/><line x1="290.0" y1="1100.0" x2="312.0" y2="1100.0" stroke="#C8AA76" stroke-width="1.5" opacity=".4"/><line x1="292.3" y1="1046.8" x2="301.3" y2="1047.6" stroke="#C8AA76" stroke-width="1.5" opacity=".4"/><line x1="299.3" y1="994.1" x2="308.1" y2="995.6" stroke="#C8AA76" stroke-width="1.5" opacity=".4"/><line x1="310.8" y1="942.1" x2="319.5" y2="944.4" stroke="#C8AA76" stroke-width="1.5" opacity=".4"/><line x1="326.8" y1="891.4" x2="335.2" y2="894.4" stroke="#C8AA76" stroke-width="1.5" opacity=".4"/><line x1="347.2" y1="842.2" x2="355.3" y2="846.0" stroke="#C8AA76" stroke-width="1.5" opacity=".4"/><line x1="371.7" y1="795.0" x2="390.8" y2="806.0" stroke="#C8AA76" stroke-width="1.5" opacity=".4"/><line x1="400.3" y1="750.1" x2="407.7" y2="755.3" stroke="#C8AA76" stroke-width="1.5" opacity=".4"/><line x1="432.7" y1="707.9" x2="439.6" y2="713.7" stroke="#C8AA76" stroke-width="1.5" opacity=".4"/><line x1="468.7" y1="668.7" x2="475.0" y2="675.0" stroke="#C8AA76" stroke-width="1.5" opacity=".4"/><line x1="507.9" y1="632.7" x2="513.7" y2="639.6" stroke="#C8AA76" stroke-width="1.5" opacity=".4"/><line x1="550.1" y1="600.3" x2="555.3" y2="607.7" stroke="#C8AA76" stroke-width="1.5" opacity=".4"/><line x1="595.0" y1="571.7" x2="606.0" y2="590.8" stroke="#C8AA76" stroke-width="1.5" opacity=".4"/><line x1="642.2" y1="547.2" x2="646.0" y2="555.3" stroke="#C8AA76" stroke-width="1.5" opacity=".4"/><line x1="691.4" y1="526.8" x2="694.4" y2="535.2" stroke="#C8AA76" stroke-width="1.5" opacity=".4"/><line x1="742.1" y1="510.8" x2="744.4" y2="519.5" stroke="#C8AA76" stroke-width="1.5" opacity=".4"/><line x1="794.1" y1="499.3" x2="795.6" y2="508.1" stroke="#C8AA76" stroke-width="1.5" opacity=".4"/><line x1="846.8" y1="492.3" x2="847.6" y2="501.3" stroke="#C8AA76" stroke-width="1.5" opacity=".4"/><line x1="900.0" y1="490.0" x2="900.0" y2="512.0" stroke="#C8AA76" stroke-width="1.5" opacity=".4"/><line x1="953.2" y1="492.3" x2="952.4" y2="501.3" stroke="#C8AA76" stroke-width="1.5" opacity=".4"/><line x1="1005.9" y1="499.3" x2="1004.4" y2="508.1" stroke="#C8AA76" stroke-width="1.5" opacity=".4"/><line x1="1057.9" y1="510.8" x2="1055.6" y2="519.5" stroke="#C8AA76" stroke-width="1.5" opacity=".4"/><line x1="1108.6" y1="526.8" x2="1105.6" y2="535.2" stroke="#C8AA76" stroke-width="1.5" opacity=".4"/><line x1="1157.8" y1="547.2" x2="1154.0" y2="555.3" stroke="#C8AA76" stroke-width="1.5" opacity=".4"/><line x1="1205.0" y1="571.7" x2="1194.0" y2="590.8" stroke="#C8AA76" stroke-width="1.5" opacity=".4"/><line x1="1249.9" y1="600.3" x2="1244.7" y2="607.7" stroke="#C8AA76" stroke-width="1.5" opacity=".4"/><line x1="1292.1" y1="632.7" x2="1286.3" y2="639.6" stroke="#C8AA76" stroke-width="1.5" opacity=".4"/><line x1="1331.3" y1="668.7" x2="1325.0" y2="675.0" stroke="#C8AA76" stroke-width="1.5" opacity=".4"/><line x1="1367.3" y1="707.9" x2="1360.4" y2="713.7" stroke="#C8AA76" stroke-width="1.5" opacity=".4"/><line x1="1399.7" y1="750.1" x2="1392.3" y2="755.3" stroke="#C8AA76" stroke-width="1.5" opacity=".4"/><line x1="1428.3" y1="795.0" x2="1409.2" y2="806.0" stroke="#C8AA76" stroke-width="1.5" opacity=".4"/><line x1="1452.8" y1="842.2" x2="1444.7" y2="846.0" stroke="#C8AA76" stroke-width="1.5" opacity=".4"/><line x1="1473.2" y1="891.4" x2="1464.8" y2="894.4" stroke="#C8AA76" stroke-width="1.5" opacity=".4"/><line x1="1489.2" y1="942.1" x2="1480.5" y2="944.4" stroke="#C8AA76" stroke-width="1.5" opacity=".4"/><line x1="1500.7" y1="994.1" x2="1491.9" y2="995.6" stroke="#C8AA76" stroke-width="1.5" opacity=".4"/><line x1="1507.7" y1="1046.8" x2="1498.7" y2="1047.6" stroke="#C8AA76" stroke-width="1.5" opacity=".4"/><path d="M948.7 877.8 L1085.6 1218.1 L718.5 785.5 L938.6 869.8 L1018.1 1535.3 L1071.3 900.1 L946.4 1312.0 L1148.1 1162.4 L973.9 1348.0" fill="none" stroke="#C8AA76" stroke-width="2" opacity=".55"/><path d="M973.9 1348.0 L948.7 877.8 M718.5 785.5 L1071.3 900.1 L1148.1 1162.4" fill="none" stroke="#C8AA76" stroke-width="1" opacity=".3" stroke-dasharray="2 8"/><circle cx="948.7" cy="877.8" r="62.400000000000006" fill="#C8AA76" opacity="0.14"/><circle cx="948.7" cy="877.8" r="24" fill="#F2EFE9" stroke="#F2EFE9" stroke-width="2.5"/><circle cx="1085.6" cy="1218.1" r="44.2" fill="#C8AA76" opacity="0.07"/><circle cx="1085.6" cy="1218.1" r="17" fill="#C8AA76" stroke="#C8AA76" stroke-width="2.5"/><circle cx="718.5" cy="785.5" r="62.400000000000006" fill="#C8AA76" opacity="0.14"/><circle cx="718.5" cy="785.5" r="24" fill="#F2EFE9" stroke="#F2EFE9" stroke-width="2.5"/><circle cx="938.6" cy="869.8" r="62.400000000000006" fill="#C8AA76" opacity="0.14"/><circle cx="938.6" cy="869.8" r="24" fill="#F2EFE9" stroke="#F2EFE9" stroke-width="2.5"/><circle cx="1018.1" cy="1535.3" r="62.400000000000006" fill="#C8AA76" opacity="0.14"/><circle cx="1018.1" cy="1535.3" r="24" fill="#F2EFE9" stroke="#F2EFE9" stroke-width="2.5"/><circle cx="1071.3" cy="900.1" r="62.400000000000006" fill="#C8AA76" opacity="0.14"/><circle cx="1071.3" cy="900.1" r="24" fill="#F2EFE9" stroke="#F2EFE9" stroke-width="2.5"/><circle cx="946.4" cy="1312.0" r="28.6" fill="#C8AA76" opacity="0.07"/><circle cx="946.4" cy="1312.0" r="11" fill="none" stroke="#C8AA76" stroke-width="2.5"/><circle cx="1148.1" cy="1162.4" r="62.400000000000006" fill="#C8AA76" opacity="0.14"/><circle cx="1148.1" cy="1162.4" r="24" fill="#F2EFE9" stroke="#F2EFE9" stroke-width="2.5"/><circle cx="973.9" cy="1348.0" r="62.400000000000006" fill="#C8AA76" opacity="0.14"/><circle cx="973.9" cy="1348.0" r="24" fill="#F2EFE9" stroke="#F2EFE9" stroke-width="2.5"/><circle cx="900" cy="1100" r="5" fill="#C8AA76"/><text x="150" y="640" text-anchor="start" transform="rotate(-4 150 640)" font-family="'Homemade Apple',cursive" font-size="34" fill="#fff" opacity=".88">the porch light at my</text><text x="150" y="694" text-anchor="start" transform="rotate(-4 150 640)" font-family="'Homemade Apple',cursive" font-size="34" fill="#fff" opacity=".88">grandmother's house</text><text x="1650" y="1500" text-anchor="end" transform="rotate(3 1650 1500)" font-family="'Homemade Apple',cursive" font-size="34" fill="#fff" opacity=".88">the version where the last</text><text x="1650" y="1554" text-anchor="end" transform="rotate(3 1650 1500)" font-family="'Homemade Apple',cursive" font-size="34" fill="#fff" opacity=".88">bus is always late</text><text x="150" y="1560" text-anchor="start" transform="rotate(-2 150 1560)" font-family="'Homemade Apple',cursive" font-size="34" fill="#fff" opacity=".88">a quiet room with a window</text><text x="150" y="1614" text-anchor="start" transform="rotate(-2 150 1560)" font-family="'Homemade Apple',cursive" font-size="34" fill="#fff" opacity=".88">facing the water</text><text x="900" y="1790" text-anchor="middle" font-family="'DM Mono',monospace" font-size="24" letter-spacing="5" fill="#C8AA76">CONFIGURATION 17,904,331,208,556,120,977</text><text x="900" y="1830" text-anchor="middle" font-family="'Cormorant Garamond',Georgia,serif" font-style="italic" font-size="34" fill="#F2EFE9" opacity=".8">of 43,252,003,274,489,856,000. This one.</text><text x="150" y="1885" font-family="Cinzel,serif" font-size="26" letter-spacing="6" fill="#C8AA76">I</text><text x="230" y="1885" font-family="Cinzel,serif" font-size="26" letter-spacing="8" fill="#F2EFE9">PRESERVE</text><text x="520" y="1885" font-family="'DM Mono',monospace" font-size="22" letter-spacing="3" fill="#F2EFE9" opacity=".7">NATURAL HISTORY MUSEUM  /  10 SEC</text><rect x="1180" y="1870" width="5" height="14" fill="#C8AA76" opacity=".85"/><rect x="1190" y="1865.5" width="5" height="23" fill="#C8AA76" opacity=".85"/><rect x="1200" y="1858.5" width="5" height="37" fill="#C8AA76" opacity=".85"/><rect x="1210" y="1863" width="5" height="28" fill="#C8AA76" opacity=".85"/><rect x="1220" y="1856.5" width="5" height="41" fill="#C8AA76" opacity=".85"/><rect x="1230" y="1868" width="5" height="18" fill="#C8AA76" opacity=".85"/><rect x="1240" y="1861" width="5" height="32" fill="#C8AA76" opacity=".85"/><rect x="1250" y="1865.5" width="5" height="23" fill="#C8AA76" opacity=".85"/><rect x="1260" y="1857.5" width="5" height="39" fill="#C8AA76" opacity=".85"/><rect x="1270" y="1863" width="5" height="28" fill="#C8AA76" opacity=".85"/><rect x="1280" y="1869" width="5" height="16" fill="#C8AA76" opacity=".85"/><rect x="1290" y="1861" width="5" height="32" fill="#C8AA76" opacity=".85"/><rect x="1300" y="1864.5" width="5" height="25" fill="#C8AA76" opacity=".85"/><rect x="1310" y="1856.5" width="5" height="41" fill="#C8AA76" opacity=".85"/><rect x="1320" y="1868" width="5" height="18" fill="#C8AA76" opacity=".85"/><rect x="1330" y="1870" width="5" height="14" fill="#C8AA76" opacity=".85"/><text x="1650" y="1885" text-anchor="end" font-family="'DM Mono',monospace" font-size="22" letter-spacing="3" fill="#C8AA76" opacity=".85">10:12 AM</text><line x1="150" y1="1905" x2="1650" y2="1905" stroke="#C8AA76" stroke-width="1" opacity=".18"/><text x="150" y="1947" font-family="Cinzel,serif" font-size="26" letter-spacing="6" fill="#C8AA76">II</text><text x="230" y="1947" font-family="Cinzel,serif" font-size="26" letter-spacing="8" fill="#F2EFE9">AUTHOR</text><text x="520" y="1947" font-family="'DM Mono',monospace" font-size="22" letter-spacing="3" fill="#F2EFE9" opacity=".7">LUCAS MUSEUM  /  CAPTION</text><text x="1650" y="1947" text-anchor="end" font-family="'DM Mono',monospace" font-size="22" letter-spacing="3" fill="#C8AA76" opacity=".85">12:31 PM</text><line x1="150" y1="1967" x2="1650" y2="1967" stroke="#C8AA76" stroke-width="1" opacity=".18"/><text x="150" y="2009" font-family="Cinzel,serif" font-size="26" letter-spacing="6" fill="#C8AA76">III</text><text x="230" y="2009" font-family="Cinzel,serif" font-size="26" letter-spacing="8" fill="#F2EFE9">RESOLVE</text><text x="520" y="2009" font-family="'DM Mono',monospace" font-size="22" letter-spacing="3" fill="#F2EFE9" opacity=".7">CALIFORNIA SCIENCE CENTER  /  CONFIGURATION</text><text x="1650" y="2009" text-anchor="end" font-family="'DM Mono',monospace" font-size="22" letter-spacing="3" fill="#C8AA76" opacity=".85">3:05 PM</text><line x1="150" y1="2029" x2="1650" y2="2029" stroke="#C8AA76" stroke-width="1" opacity=".18"/><text x="150" y="2071" font-family="Cinzel,serif" font-size="26" letter-spacing="6" fill="#C8AA76">IV</text><text x="230" y="2071" font-family="Cinzel,serif" font-size="26" letter-spacing="8" fill="#F2EFE9">SEAL</text><text x="520" y="2071" font-family="'DM Mono',monospace" font-size="22" letter-spacing="3" fill="#F2EFE9" opacity=".7">ROSE GARDEN  /  SEALED</text><text x="1650" y="2071" text-anchor="end" font-family="'DM Mono',monospace" font-size="22" letter-spacing="3" fill="#C8AA76" opacity=".85">5:42 PM</text><line x1="150" y1="2091" x2="1650" y2="2091" stroke="#C8AA76" stroke-width="1" opacity=".18"/><text x="150" y="2200" font-family="Cinzel,serif" font-size="24" letter-spacing="10" fill="#F2EFE9">SEALED  /  5:42 PM</text><text x="1650" y="2200" text-anchor="end" font-family="'DM Mono',monospace" font-size="17" letter-spacing="4" fill="#F2EFE9" opacity=".5">SHA-256</text><text x="900" y="2232" text-anchor="middle" font-family="'DM Mono',monospace" font-size="17" letter-spacing="3" fill="#C8AA76" opacity=".75">c834172faa8fc63835cadc4c372d0a47</text><text x="900" y="2258" text-anchor="middle" font-family="'DM Mono',monospace" font-size="17" letter-spacing="3" fill="#C8AA76" opacity=".75">344911051d742cb98366ef3440649760</text><text x="150" y="2290" font-family="'Cormorant Garamond',Georgia,serif" font-style="italic" font-size="30" fill="#F2EFE9" opacity=".7">Origin is becoming scarce. Yours is filed here.</text><text x="1650" y="2290" text-anchor="end" font-family="'DM Mono',monospace" font-size="17" letter-spacing="4" fill="#F2EFE9" opacity=".45">EP-9997  /  ONE OF ONE  /  NOT INTENDED TO SCALE</text></svg>