<svg xmlns="http://www.w3.org/2000/svg" viewBox="0 0 1800 2400" role="img" aria-label="Accession plate EP-9997"><rect width="1800" height="2400" fill="#080808"/><defs><radialGradient id="pg" cx="50%" cy="47%" r="52%"><stop offset="0" stop-color="#C8AA76" stop-opacity=".1"/><stop offset="1" stop-color="#C8AA76" stop-opacity="0"/></radialGradient></defs><rect width="1800" height="2400" fill="url(#pg)"/><rect x="60" y="60" width="1680" height="2280" fill="none" stroke="#C8AA76" stroke-width="2" opacity=".55"/><rect x="84" y="84" width="1632" height="2232" fill="none" stroke="#C8AA76" stroke-width="1" opacity=".25"/><text x="150" y="180" font-family="'DM Mono',monospace" font-size="22" letter-spacing="8" fill="#C8AA76" opacity="1">HYAKUTAKE</text><text x="150" y="214" font-family="'DM Mono',monospace" font-size="20" letter-spacing="8" fill="#F2EFE9" opacity="0.75">FIELD RECORD</text><text x="150" y="300" font-family="'DM Mono',monospace" font-size="18" letter-spacing="4" fill="#F2EFE9" opacity="0.5">RECORD NO.</text><text x="400" y="300" font-family="'DM Mono',monospace" font-size="20" letter-spacing="4" fill="#C8AA76" opacity="0.9">EP-9997</text><text x="150" y="356" font-family="'DM Mono',monospace" font-size="18" letter-spacing="4" fill="#F2EFE9" opacity="0.5">NAME</text><text x="400" y="356" font-family="'DM Mono',monospace" font-size="20" letter-spacing="4" fill="#F2EFE9" opacity="0.9">Bianca (walkthrough)</text><text x="150" y="412" font-family="'DM Mono',monospace" font-size="18" letter-spacing="4" fill="#F2EFE9" opacity="0.5">DATE</text><text x="400" y="412" font-family="'DM Mono',monospace" font-size="20" letter-spacing="4" fill="#F2EFE9" opacity="0.9">OCTOBER 14, 2026</text><text x="150" y="468" font-family="'DM Mono',monospace" font-size="18" letter-spacing="4" fill="#F2EFE9" opacity="0.5">LOCATION</text><text x="400" y="468" font-family="'DM Mono',monospace" font-size="20" letter-spacing="4" fill="#F2EFE9" opacity="0.9">EXPOSITION PARK</text><text x="400" y="502" font-family="'DM Mono',monospace" font-size="20" letter-spacing="4" fill="#F2EFE9" opacity="0.9">LOS ANGELES, CA</text><text x="1650" y="180" text-anchor="end" font-family="'DM Mono',monospace" font-size="22" letter-spacing="8" fill="#C8AA76" opacity="1">FIVE ROOMS</text><text x="1210" y="244" font-family="'DM Mono',monospace" font-size="19" letter-spacing="4" fill="#F2EFE9" opacity="0.55">I.</text><text x="1270" y="244" font-family="'DM Mono',monospace" font-size="20" letter-spacing="4" fill="#F2EFE9" opacity="0.9">Preserve</text><text x="1650" y="244" text-anchor="end" font-family="'DM Mono',monospace" font-size="19" letter-spacing="4" fill="#C8AA76" opacity="0.9">10:12 AM</text><text x="1210" y="284" font-family="'DM Mono',monospace" font-size="19" letter-spacing="4" fill="#F2EFE9" opacity="0.55">II.</text><text x="1270" y="284" font-family="'DM Mono',monospace" font-size="20" letter-spacing="4" fill="#F2EFE9" opacity="0.9">Author</text><text x="1650" y="284" text-anchor="end" font-family="'DM Mono',monospace" font-size="19" letter-spacing="4" fill="#C8AA76" opacity="0.9">12:31 PM</text><text x="1210" y="324" font-family="'DM Mono',monospace" font-size="19" letter-spacing="4" fill="#F2EFE9" opacity="0.55">III.</text><text x="1270" y="324" font-family="'DM Mono',monospace" font-size="20" letter-spacing="4" fill="#F2EFE9" opacity="0.9">Resolve</text><text x="1650" y="324" text-anchor="end" font-family="'DM Mono',monospace" font-size="19" letter-spacing="4" fill="#C8AA76" opacity="0.9">3:05 PM</text><text x="1210" y="364" font-family="'DM Mono',monospace" font-size="19" letter-spacing="4" fill="#F2EFE9" opacity="0.55">IV.</text><text x="1270" y="364" font-family="'DM Mono',monospace" font-size="20" letter-spacing="4" fill="#F2EFE9" opacity="0.9">Seal</text><text x="1650" y="364" text-anchor="end" font-family="'DM Mono',monospace" font-size="19" letter-spacing="4" fill="#C8AA76" opacity="0.9">5:42 PM</text><line x1="900" y1="440" x2="900" y2="1830" stroke="#C8AA76" stroke-width="1" opacity=".3"/><line x1="110" y1="1130" x2="1690" y2="1130" stroke="#C8AA76" stroke-width="1" opacity=".3"/><circle cx="900" cy="440" r="9" fill="#080808" stroke="#C8AA76" stroke-width="1.5" opacity=".8"/><circle cx="900" cy="1830" r="9" fill="#080808" stroke="#C8AA76" stroke-width="1.5" opacity=".8"/><circle cx="999.9" cy="1216.7" r="3.4" fill="#F2EFE9" opacity="0.13"/><circle cx="641.9" cy="1205.2" r="2.1" fill="#F2EFE9" opacity="0.20"/><circle cx="1068.7" cy="1448.8" r="2.3" fill="#F2EFE9" opacity="0.18"/><circle cx="819.0" cy="608.4" r="2.0" fill="#F2EFE9" opacity="0.21"/><circle cx="674.8" cy="1110.5" r="2.7" fill="#F2EFE9" opacity="0.14"/><circle cx="765.0" cy="1228.1" r="2.9" fill="#F2EFE9" opacity="0.13"/><circle cx="1099.3" cy="1047.1" r="2.9" fill="#F2EFE9" opacity="0.15"/><circle cx="1033.2" cy="1577.2" r="2.2" fill="#F2EFE9" opacity="0.26"/><circle cx="897.5" cy="1541.6" r="3.0" fill="#F2EFE9" opacity="0.17"/><circle cx="491.9" cy="1458.4" r="2.6" fill="#F2EFE9" opacity="0.34"/><circle cx="704.0" cy="1001.8" r="2.2" fill="#F2EFE9" opacity="0.27"/><circle cx="737.2" cy="1289.8" r="1.8" fill="#F2EFE9" opacity="0.24"/><circle cx="370.1" cy="1084.2" r="2.5" fill="#F2EFE9" opacity="0.40"/><circle cx="882.5" cy="1698.4" r="1.3" fill="#F2EFE9" opacity="0.18"/><circle cx="640.1" cy="1219.8" r="1.9" fill="#F2EFE9" opacity="0.20"/><circle cx="1130.4" cy="1101.5" r="3.1" fill="#F2EFE9" opacity="0.24"/><circle cx="785.2" cy="952.0" r="1.8" fill="#F2EFE9" opacity="0.30"/><circle cx="1040.0" cy="1119.6" r="3.0" fill="#F2EFE9" opacity="0.23"/><circle cx="697.9" cy="1301.0" r="2.5" fill="#F2EFE9" opacity="0.27"/><circle cx="674.8" cy="1110.5" r="1.7" fill="#F2EFE9" opacity="0.20"/><circle cx="727.6" cy="1336.3" r="2.1" fill="#F2EFE9" opacity="0.25"/><circle cx="832.8" cy="990.7" r="3.3" fill="#F2EFE9" opacity="0.41"/><circle cx="915.2" cy="1000.7" r="1.8" fill="#F2EFE9" opacity="0.32"/><circle cx="916.5" cy="951.6" r="1.3" fill="#F2EFE9" opacity="0.42"/><circle cx="563.0" cy="1246.4" r="1.8" fill="#F2EFE9" opacity="0.24"/><circle cx="984.1" cy="937.9" r="2.2" fill="#F2EFE9" opacity="0.27"/><circle cx="590.7" cy="740.7" r="2.9" fill="#F2EFE9" opacity="0.23"/><circle cx="531.1" cy="1247.4" r="1.6" fill="#F2EFE9" opacity="0.32"/><circle cx="865.7" cy="1456.2" r="1.4" fill="#F2EFE9" opacity="0.35"/><circle cx="348.2" cy="876.1" r="1.6" fill="#F2EFE9" opacity="0.35"/><circle cx="1108.7" cy="1216.8" r="2.7" fill="#F2EFE9" opacity="0.25"/><circle cx="796.7" cy="1358.2" r="2.4" fill="#F2EFE9" opacity="0.36"/><circle cx="1078.9" cy="860.0" r="2.9" fill="#F2EFE9" opacity="0.31"/><circle cx="876.3" cy="1557.3" r="1.7" fill="#F2EFE9" opacity="0.26"/><circle cx="990.1" cy="827.4" r="1.7" fill="#F2EFE9" opacity="0.20"/><circle cx="581.3" cy="910.2" r="2.9" fill="#F2EFE9" opacity="0.29"/><circle cx="960.1" cy="1375.3" r="3.1" fill="#F2EFE9" opacity="0.14"/><circle cx="579.8" cy="1277.3" r="1.9" fill="#F2EFE9" opacity="0.22"/><circle cx="1502.5" cy="946.5" r="1.7" fill="#F2EFE9" opacity="0.37"/><circle cx="851.6" cy="1590.1" r="1.6" fill="#F2EFE9" opacity="0.20"/><circle cx="900" cy="1130" r="650" fill="none" stroke="#C8AA76" stroke-width="2" opacity="0.55"/><circle cx="900" cy="1130" r="612" fill="none" stroke="#C8AA76" stroke-width="1" opacity="0.2" stroke-dasharray="3 9"/><circle cx="900" cy="1130" r="400" fill="none" stroke="#C8AA76" stroke-width="1" opacity="0.2"/><circle cx="900" cy="1130" r="200" fill="none" stroke="#C8AA76" stroke-width="1" opacity="0.2" stroke-dasharray="3 9"/><line x1="1550.0" y1="1130.0" x2="1528.0" y2="1130.0" stroke="#C8AA76" stroke-width="1.5" opacity=".4"/><line x1="1547.5" y1="1186.7" x2="1538.6" y2="1185.9" stroke="#C8AA76" stroke-width="1.5" opacity=".4"/><line x1="1540.1" y1="1242.9" x2="1531.3" y2="1241.3" stroke="#C8AA76" stroke-width="1.5" opacity=".4"/><line x1="1527.9" y1="1298.2" x2="1519.2" y2="1295.9" stroke="#C8AA76" stroke-width="1.5" opacity=".4"/><line x1="1510.8" y1="1352.3" x2="1502.3" y2="1349.2" stroke="#C8AA76" stroke-width="1.5" opacity=".4"/><line x1="1489.1" y1="1404.7" x2="1480.9" y2="1400.9" stroke="#C8AA76" stroke-width="1.5" opacity=".4"/><line x1="1462.9" y1="1455.0" x2="1443.9" y2="1444.0" stroke="#C8AA76" stroke-width="1.5" opacity=".4"/><line x1="1432.4" y1="1502.8" x2="1425.1" y2="1497.7" stroke="#C8AA76" stroke-width="1.5" opacity=".4"/><line x1="1397.9" y1="1547.8" x2="1391.0" y2="1542.0" stroke="#C8AA76" stroke-width="1.5" opacity=".4"/><line x1="1359.6" y1="1589.6" x2="1353.3" y2="1583.3" stroke="#C8AA76" stroke-width="1.5" opacity=".4"/><line x1="1317.8" y1="1627.9" x2="1312.0" y2="1621.0" stroke="#C8AA76" stroke-width="1.5" opacity=".4"/><line x1="1272.8" y1="1662.4" x2="1267.7" y2="1655.1" stroke="#C8AA76" stroke-width="1.5" opacity=".4"/><line x1="1225.0" y1="1692.9" x2="1214.0" y2="1673.9" stroke="#C8AA76" stroke-width="1.5" opacity=".4"/><line x1="1174.7" y1="1719.1" x2="1170.9" y2="1710.9" stroke="#C8AA76" stroke-width="1.5" opacity=".4"/><line x1="1122.3" y1="1740.8" x2="1119.2" y2="1732.3" stroke="#C8AA76" stroke-width="1.5" opacity=".4"/><line x1="1068.2" y1="1757.9" x2="1065.9" y2="1749.2" stroke="#C8AA76" stroke-width="1.5" opacity=".4"/><line x1="1012.9" y1="1770.1" x2="1011.3" y2="1761.3" stroke="#C8AA76" stroke-width="1.5" opacity=".4"/><line x1="956.7" y1="1777.5" x2="955.9" y2="1768.6" stroke="#C8AA76" stroke-width="1.5" opacity=".4"/><line x1="900.0" y1="1780.0" x2="900.0" y2="1758.0" stroke="#C8AA76" stroke-width="1.5" opacity=".4"/><line x1="843.3" y1="1777.5" x2="844.1" y2="1768.6" stroke="#C8AA76" stroke-width="1.5" opacity=".4"/><line x1="787.1" y1="1770.1" x2="788.7" y2="1761.3" stroke="#C8AA76" stroke-width="1.5" opacity=".4"/><line x1="731.8" y1="1757.9" x2="734.1" y2="1749.2" stroke="#C8AA76" stroke-width="1.5" opacity=".4"/><line x1="677.7" y1="1740.8" x2="680.8" y2="1732.3" stroke="#C8AA76" stroke-width="1.5" opacity=".4"/><line x1="625.3" y1="1719.1" x2="629.1" y2="1710.9" stroke="#C8AA76" stroke-width="1.5" opacity=".4"/><line x1="575.0" y1="1692.9" x2="586.0" y2="1673.9" stroke="#C8AA76" stroke-width="1.5" opacity=".4"/><line x1="527.2" y1="1662.4" x2="532.3" y2="1655.1" stroke="#C8AA76" stroke-width="1.5" opacity=".4"/><line x1="482.2" y1="1627.9" x2="488.0" y2="1621.0" stroke="#C8AA76" stroke-width="1.5" opacity=".4"/><line x1="440.4" y1="1589.6" x2="446.7" y2="1583.3" stroke="#C8AA76" stroke-width="1.5" opacity=".4"/><line x1="402.1" y1="1547.8" x2="409.0" y2="1542.0" stroke="#C8AA76" stroke-width="1.5" opacity=".4"/><line x1="367.6" y1="1502.8" x2="374.9" y2="1497.7" stroke="#C8AA76" stroke-width="1.5" opacity=".4"/><line x1="337.1" y1="1455.0" x2="356.1" y2="1444.0" stroke="#C8AA76" stroke-width="1.5" opacity=".4"/><line x1="310.9" y1="1404.7" x2="319.1" y2="1400.9" stroke="#C8AA76" stroke-width="1.5" opacity=".4"/><line x1="289.2" y1="1352.3" x2="297.7" y2="1349.2" stroke="#C8AA76" stroke-width="1.5" opacity=".4"/><line x1="272.1" y1="1298.2" x2="280.8" y2="1295.9" stroke="#C8AA76" stroke-width="1.5" opacity=".4"/><line x1="259.9" y1="1242.9" x2="268.7" y2="1241.3" stroke="#C8AA76" stroke-width="1.5" opacity=".4"/><line x1="252.5" y1="1186.7" x2="261.4" y2="1185.9" stroke="#C8AA76" stroke-width="1.5" opacity=".4"/><line x1="250.0" y1="1130.0" x2="272.0" y2="1130.0" stroke="#C8AA76" stroke-width="1.5" opacity=".4"/><line x1="252.5" y1="1073.3" x2="261.4" y2="1074.1" stroke="#C8AA76" stroke-width="1.5" opacity=".4"/><line x1="259.9" y1="1017.1" x2="268.7" y2="1018.7" stroke="#C8AA76" stroke-width="1.5" opacity=".4"/><line x1="272.1" y1="961.8" x2="280.8" y2="964.1" stroke="#C8AA76" stroke-width="1.5" opacity=".4"/><line x1="289.2" y1="907.7" x2="297.7" y2="910.8" stroke="#C8AA76" stroke-width="1.5" opacity=".4"/><line x1="310.9" y1="855.3" x2="319.1" y2="859.1" stroke="#C8AA76" stroke-width="1.5" opacity=".4"/><line x1="337.1" y1="805.0" x2="356.1" y2="816.0" stroke="#C8AA76" stroke-width="1.5" opacity=".4"/><line x1="367.6" y1="757.2" x2="374.9" y2="762.3" stroke="#C8AA76" stroke-width="1.5" opacity=".4"/><line x1="402.1" y1="712.2" x2="409.0" y2="718.0" stroke="#C8AA76" stroke-width="1.5" opacity=".4"/><line x1="440.4" y1="670.4" x2="446.7" y2="676.7" stroke="#C8AA76" stroke-width="1.5" opacity=".4"/><line x1="482.2" y1="632.1" x2="488.0" y2="639.0" stroke="#C8AA76" stroke-width="1.5" opacity=".4"/><line x1="527.2" y1="597.6" x2="532.3" y2="604.9" stroke="#C8AA76" stroke-width="1.5" opacity=".4"/><line x1="575.0" y1="567.1" x2="586.0" y2="586.1" stroke="#C8AA76" stroke-width="1.5" opacity=".4"/><line x1="625.3" y1="540.9" x2="629.1" y2="549.1" stroke="#C8AA76" stroke-width="1.5" opacity=".4"/><line x1="677.7" y1="519.2" x2="680.8" y2="527.7" stroke="#C8AA76" stroke-width="1.5" opacity=".4"/><line x1="731.8" y1="502.1" x2="734.1" y2="510.8" stroke="#C8AA76" stroke-width="1.5" opacity=".4"/><line x1="787.1" y1="489.9" x2="788.7" y2="498.7" stroke="#C8AA76" stroke-width="1.5" opacity=".4"/><line x1="843.3" y1="482.5" x2="844.1" y2="491.4" stroke="#C8AA76" stroke-width="1.5" opacity=".4"/><line x1="900.0" y1="480.0" x2="900.0" y2="502.0" stroke="#C8AA76" stroke-width="1.5" opacity=".4"/><line x1="956.7" y1="482.5" x2="955.9" y2="491.4" stroke="#C8AA76" stroke-width="1.5" opacity=".4"/><line x1="1012.9" y1="489.9" x2="1011.3" y2="498.7" stroke="#C8AA76" stroke-width="1.5" opacity=".4"/><line x1="1068.2" y1="502.1" x2="1065.9" y2="510.8" stroke="#C8AA76" stroke-width="1.5" opacity=".4"/><line x1="1122.3" y1="519.2" x2="1119.2" y2="527.7" stroke="#C8AA76" stroke-width="1.5" opacity=".4"/><line x1="1174.7" y1="540.9" x2="1170.9" y2="549.1" stroke="#C8AA76" stroke-width="1.5" opacity=".4"/><line x1="1225.0" y1="567.1" x2="1214.0" y2="586.1" stroke="#C8AA76" stroke-width="1.5" opacity=".4"/><line x1="1272.8" y1="597.6" x2="1267.7" y2="604.9" stroke="#C8AA76" stroke-width="1.5" opacity=".4"/><line x1="1317.8" y1="632.1" x2="1312.0" y2="639.0" stroke="#C8AA76" stroke-width="1.5" opacity=".4"/><line x1="1359.6" y1="670.4" x2="1353.3" y2="676.7" stroke="#C8AA76" stroke-width="1.5" opacity=".4"/><line x1="1397.9" y1="712.2" x2="1391.0" y2="718.0" stroke="#C8AA76" stroke-width="1.5" opacity=".4"/><line x1="1432.4" y1="757.2" x2="1425.1" y2="762.3" stroke="#C8AA76" stroke-width="1.5" opacity=".4"/><line x1="1462.9" y1="805.0" x2="1443.9" y2="816.0" stroke="#C8AA76" stroke-width="1.5" opacity=".4"/><line x1="1489.1" y1="855.3" x2="1480.9" y2="859.1" stroke="#C8AA76" stroke-width="1.5" opacity=".4"/><line x1="1510.8" y1="907.7" x2="1502.3" y2="910.8" stroke="#C8AA76" stroke-width="1.5" opacity=".4"/><line x1="1527.9" y1="961.8" x2="1519.2" y2="964.1" stroke="#C8AA76" stroke-width="1.5" opacity=".4"/><line x1="1540.1" y1="1017.1" x2="1531.3" y2="1018.7" stroke="#C8AA76" stroke-width="1.5" opacity=".4"/><line x1="1547.5" y1="1073.3" x2="1538.6" y2="1074.1" stroke="#C8AA76" stroke-width="1.5" opacity=".4"/><path d="M950.4 899.8 L1091.9 1252.1 L707.2 796.1 L940.1 891.1 L1026.4 1595.9 L1079.0 921.0 L947.9 1348.9 L1158.9 1195.1 L977.1 1389.0" fill="none" stroke="#C8AA76" stroke-width="2" opacity=".55"/><path d="M977.1 1389.0 L950.4 899.8 M707.2 796.1 L1079.0 921.0 L1158.9 1195.1" fill="none" stroke="#C8AA76" stroke-width="1" opacity=".3" stroke-dasharray="2 8"/><circle cx="950.4" cy="899.8" r="62.400000000000006" fill="#C8AA76" opacity="0.14"/><circle cx="950.4" cy="899.8" r="24" fill="#F2EFE9" stroke="#F2EFE9" stroke-width="2.5"/><circle cx="1091.9" cy="1252.1" r="44.2" fill="#C8AA76" opacity="0.07"/><circle cx="1091.9" cy="1252.1" r="17" fill="#C8AA76" stroke="#C8AA76" stroke-width="2.5"/><circle cx="707.2" cy="796.1" r="62.400000000000006" fill="#C8AA76" opacity="0.14"/><circle cx="707.2" cy="796.1" r="24" fill="#F2EFE9" stroke="#F2EFE9" stroke-width="2.5"/><circle cx="940.1" cy="891.1" r="62.400000000000006" fill="#C8AA76" opacity="0.14"/><circle cx="940.1" cy="891.1" r="24" fill="#F2EFE9" stroke="#F2EFE9" stroke-width="2.5"/><circle cx="1026.4" cy="1595.9" r="62.400000000000006" fill="#C8AA76" opacity="0.14"/><circle cx="1026.4" cy="1595.9" r="24" fill="#F2EFE9" stroke="#F2EFE9" stroke-width="2.5"/><circle cx="1079.0" cy="921.0" r="62.400000000000006" fill="#C8AA76" opacity="0.14"/><circle cx="1079.0" cy="921.0" r="24" fill="#F2EFE9" stroke="#F2EFE9" stroke-width="2.5"/><circle cx="947.9" cy="1348.9" r="28.6" fill="#C8AA76" opacity="0.07"/><circle cx="947.9" cy="1348.9" r="11" fill="none" stroke="#C8AA76" stroke-width="2.5"/><circle cx="1158.9" cy="1195.1" r="62.400000000000006" fill="#C8AA76" opacity="0.14"/><circle cx="1158.9" cy="1195.1" r="24" fill="#F2EFE9" stroke="#F2EFE9" stroke-width="2.5"/><circle cx="977.1" cy="1389.0" r="62.400000000000006" fill="#C8AA76" opacity="0.14"/><circle cx="977.1" cy="1389.0" r="24" fill="#F2EFE9" stroke="#F2EFE9" stroke-width="2.5"/><circle cx="900" cy="1130" r="5" fill="#C8AA76"/><text x="150" y="1930" font-family="'DM Mono',monospace" font-size="18" letter-spacing="4" fill="#F2EFE9" opacity="0.5">COORDINATES</text><text x="400" y="1930" font-family="'DM Mono',monospace" font-size="19" letter-spacing="4" fill="#F2EFE9" opacity="0.9">34.0141 N  118.2870 W</text><text x="150" y="1988" font-family="'DM Mono',monospace" font-size="18" letter-spacing="4" fill="#F2EFE9" opacity="0.5">OBSERVATIONS</text><text x="400" y="1988" font-family="'DM Mono',monospace" font-size="19" letter-spacing="4" fill="#F2EFE9" opacity="0.9">4</text><text x="150" y="2046" font-family="'DM Mono',monospace" font-size="18" letter-spacing="4" fill="#F2EFE9" opacity="0.5">MEDIUM</text><text x="400" y="2046" font-family="'DM Mono',monospace" font-size="19" letter-spacing="4" fill="#F2EFE9" opacity="0.9">10 SEC / CAPTION / CONFIGURATION / SEALED</text><text x="1090" y="1900" font-family="'DM Mono',monospace" font-size="17" letter-spacing="4" fill="#F2EFE9" opacity="0.5">CONFIGURATION</text><text x="1650" y="1900" text-anchor="end" font-family="'DM Mono',monospace" font-size="17" letter-spacing="4" fill="#C8AA76" opacity="0.9">17,904,331,208,556,120,977</text><text x="1090" y="1946" font-family="'DM Mono',monospace" font-size="17" letter-spacing="4" fill="#F2EFE9" opacity="0.5">OF</text><text x="1650" y="1946" text-anchor="end" font-family="'DM Mono',monospace" font-size="17" letter-spacing="4" fill="#F2EFE9" opacity="0.9">43,252,003,274,489,856,000</text><text x="1090" y="1992" font-family="'DM Mono',monospace" font-size="17" letter-spacing="4" fill="#F2EFE9" opacity="0.5">REGISTRY</text><text x="1650" y="1992" text-anchor="end" font-family="'DM Mono',monospace" font-size="17" letter-spacing="4" fill="#F2EFE9" opacity="0.9">EP-9997</text><text x="1090" y="2038" font-family="'DM Mono',monospace" font-size="17" letter-spacing="4" fill="#F2EFE9" opacity="0.5">SEALED</text><text x="1650" y="2038" text-anchor="end" font-family="'DM Mono',monospace" font-size="17" letter-spacing="4" fill="#F2EFE9" opacity="0.9">5:42 PM</text><text x="1090" y="2084" font-family="'DM Mono',monospace" font-size="17" letter-spacing="4" fill="#F2EFE9" opacity="0.5">SHA-256</text><text x="1650" y="2084" text-anchor="end" font-family="'DM Mono',monospace" font-size="17" letter-spacing="4" fill="#F2EFE9" opacity="0.9">c834172faa8fc638...</text><text x="1650" y="2150" text-anchor="end" font-family="'DM Mono',monospace" font-size="16" letter-spacing="4" fill="#F2EFE9" opacity="0.55">A CITY OBSERVED</text><text x="1650" y="2174" text-anchor="end" font-family="'DM Mono',monospace" font-size="16" letter-spacing="4" fill="#F2EFE9" opacity="0.55">CANNOT BE RECREATED</text><text x="900" y="2010" text-anchor="middle" transform="rotate(-3 900 2010)" font-family="'Homemade Apple',cursive" font-size="38" fill="#fff" opacity=".9">the porch light at my</text><text x="900" y="2066" text-anchor="middle" transform="rotate(-3 900 2010)" font-family="'Homemade Apple',cursive" font-size="38" fill="#fff" opacity=".9">grandmother's house</text><line x1="570" y1="2150" x2="1230" y2="2150" stroke="#C8AA76" stroke-width="1.5" opacity=".45"/><rect x="150" y="2210" width="284" height="120" fill="none" stroke="#C8AA76" stroke-width="1" opacity=".4"/><rect x="454" y="2210" width="284" height="120" fill="none" stroke="#C8AA76" stroke-width="1" opacity=".4"/><rect x="758" y="2210" width="284" height="120" fill="none" stroke="#C8AA76" stroke-width="1" opacity=".4"/><rect x="1062" y="2210" width="284" height="120" fill="none" stroke="#C8AA76" stroke-width="1" opacity=".4"/><rect x="1366" y="2210" width="284" height="120" fill="none" stroke="#C8AA76" stroke-width="1" opacity=".4"/><polygon points="292.0,2220.0 319.0,2237.8 341.2,2261.3 335.3,2295.0 309.1,2317.0 274.9,2317.0 262.6,2287.0 242.8,2261.3 259.9,2231.7" fill="none" stroke="#C8AA76" stroke-width="1.5" opacity=".8"/><circle cx="292.0" cy="2220.0" r="3.5" fill="#F2EFE9"/><circle cx="319.0" cy="2237.8" r="3.5" fill="#F2EFE9"/><circle cx="341.2" cy="2261.3" r="3.5" fill="#F2EFE9"/><circle cx="335.3" cy="2295.0" r="3.5" fill="#F2EFE9"/><circle cx="309.1" cy="2317.0" r="3.5" fill="#F2EFE9"/><circle cx="274.9" cy="2317.0" r="3.5" fill="#F2EFE9"/><circle cx="262.6" cy="2287.0" r="3.5" fill="#F2EFE9"/><circle cx="242.8" cy="2261.3" r="3.5" fill="#F2EFE9"/><circle cx="259.9" cy="2231.7" r="3.5" fill="#F2EFE9"/><rect x="468" y="2258" width="3" height="24" fill="#C8AA76" opacity=".85"/><rect x="474.4" y="2250" width="3" height="40" fill="#C8AA76" opacity=".85"/><rect x="480.8" y="2238" width="3" height="64" fill="#C8AA76" opacity=".85"/><rect x="487.2" y="2246" width="3" height="48" fill="#C8AA76" opacity=".85"/><rect x="493.6" y="2234" width="3" height="72" fill="#C8AA76" opacity=".85"/><rect x="500" y="2254" width="3" height="32" fill="#C8AA76" opacity=".85"/><rect x="506.4" y="2242" width="3" height="56" fill="#C8AA76" opacity=".85"/><rect x="512.8" y="2250" width="3" height="40" fill="#C8AA76" opacity=".85"/><rect x="519.2" y="2236" width="3" height="68" fill="#C8AA76" opacity=".85"/><rect x="525.6" y="2246" width="3" height="48" fill="#C8AA76" opacity=".85"/><rect x="532" y="2256" width="3" height="28" fill="#C8AA76" opacity=".85"/><rect x="538.4" y="2242" width="3" height="56" fill="#C8AA76" opacity=".85"/><rect x="544.8" y="2248" width="3" height="44" fill="#C8AA76" opacity=".85"/><rect x="551.2" y="2234" width="3" height="72" fill="#C8AA76" opacity=".85"/><rect x="557.6" y="2254" width="3" height="32" fill="#C8AA76" opacity=".85"/><rect x="564" y="2258" width="3" height="24" fill="#C8AA76" opacity=".85"/><text x="776" y="2264" font-family="'Homemade Apple',cursive" font-size="20" fill="#fff" opacity=".85">the version where the</text><text x="776" y="2298" font-family="'Homemade Apple',cursive" font-size="20" fill="#fff" opacity=".85">last bus is always...</text><circle cx="1092" cy="2236" r="4" fill="#C8AA76" opacity="0.9"/><circle cx="1112" cy="2236" r="2" fill="#F2EFE9" opacity="0.3"/><circle cx="1132" cy="2236" r="2" fill="#F2EFE9" opacity="0.3"/><circle cx="1152" cy="2236" r="2" fill="#F2EFE9" opacity="0.3"/><circle cx="1172" cy="2236" r="4" fill="#C8AA76" opacity="0.9"/><circle cx="1192" cy="2236" r="4" fill="#C8AA76" opacity="0.9"/><circle cx="1212" cy="2236" r="4" fill="#C8AA76" opacity="0.9"/><circle cx="1232" cy="2236" r="2" fill="#F2EFE9" opacity="0.3"/><circle cx="1252" cy="2236" r="2" fill="#F2EFE9" opacity="0.3"/><circle cx="1272" cy="2236" r="4" fill="#C8AA76" opacity="0.9"/><circle cx="1292" cy="2236" r="4" fill="#C8AA76" opacity="0.9"/><circle cx="1312" cy="2236" r="2" fill="#F2EFE9" opacity="0.3"/><circle cx="1092" cy="2260" r="2" fill="#F2EFE9" opacity="0.3"/><circle cx="1112" cy="2260" r="2" fill="#F2EFE9" opacity="0.3"/><circle cx="1132" cy="2260" r="2" fill="#F2EFE9" opacity="0.3"/><circle cx="1152" cy="2260" r="2" fill="#F2EFE9" opacity="0.3"/><circle cx="1172" cy="2260" r="2" fill="#F2EFE9" opacity="0.3"/><circle cx="1192" cy="2260" r="2" fill="#F2EFE9" opacity="0.3"/><circle cx="1212" cy="2260" r="2" fill="#F2EFE9" opacity="0.3"/><circle cx="1232" cy="2260" r="2" fill="#F2EFE9" opacity="0.3"/><circle cx="1252" cy="2260" r="2" fill="#F2EFE9" opacity="0.3"/><circle cx="1272" cy="2260" r="2" fill="#F2EFE9" opacity="0.3"/><circle cx="1292" cy="2260" r="2" fill="#F2EFE9" opacity="0.3"/><circle cx="1312" cy="2260" r="4" fill="#C8AA76" opacity="0.9"/><circle cx="1092" cy="2284" r="4" fill="#C8AA76" opacity="0.9"/><circle cx="1112" cy="2284" r="2" fill="#F2EFE9" opacity="0.3"/><circle cx="1132" cy="2284" r="4" fill="#C8AA76" opacity="0.9"/><circle cx="1152" cy="2284" r="2" fill="#F2EFE9" opacity="0.3"/><circle cx="1172" cy="2284" r="2" fill="#F2EFE9" opacity="0.3"/><circle cx="1192" cy="2284" r="2" fill="#F2EFE9" opacity="0.3"/><circle cx="1212" cy="2284" r="4" fill="#C8AA76" opacity="0.9"/><circle cx="1232" cy="2284" r="2" fill="#F2EFE9" opacity="0.3"/><circle cx="1252" cy="2284" r="4" fill="#C8AA76" opacity="0.9"/><circle cx="1272" cy="2284" r="2" fill="#F2EFE9" opacity="0.3"/><circle cx="1292" cy="2284" r="2" fill="#F2EFE9" opacity="0.3"/><circle cx="1312" cy="2284" r="4" fill="#C8AA76" opacity="0.9"/><circle cx="1092" cy="2308" r="4" fill="#C8AA76" opacity="0.9"/><circle cx="1112" cy="2308" r="4" fill="#C8AA76" opacity="0.9"/><circle cx="1132" cy="2308" r="2" fill="#F2EFE9" opacity="0.3"/><circle cx="1152" cy="2308" r="4" fill="#C8AA76" opacity="0.9"/><circle cx="1172" cy="2308" r="2" fill="#F2EFE9" opacity="0.3"/><circle cx="1192" cy="2308" r="4" fill="#C8AA76" opacity="0.9"/><circle cx="1212" cy="2308" r="4" fill="#C8AA76" opacity="0.9"/><circle cx="1232" cy="2308" r="4" fill="#C8AA76" opacity="0.9"/><circle cx="1252" cy="2308" r="2" fill="#F2EFE9" opacity="0.3"/><circle cx="1272" cy="2308" r="4" fill="#C8AA76" opacity="0.9"/><circle cx="1292" cy="2308" r="4" fill="#C8AA76" opacity="0.9"/><circle cx="1312" cy="2308" r="2" fill="#F2EFE9" opacity="0.3"/><circle cx="1508" cy="2270" r="34" fill="none" stroke="#C8AA76" stroke-width="1" opacity=".5"/><circle cx="1508" cy="2270" r="6" fill="#C8AA76"/><line x1="1448" y1="2270" x2="1568" y2="2270" stroke="#C8AA76" opacity=".4"/><text x="900" y="2300" text-anchor="middle" font-family="'DM Mono',monospace" font-size="15" letter-spacing="4" fill="#F2EFE9" opacity="0.4">EP-9997  /  ONE OF ONE  /  VERSION 1</text></svg>